<mxfile host="Electron" agent="Mozilla/5.0 (Windows NT 10.0; Win64; x64) AppleWebKit/537.36 (KHTML, like Gecko) draw.io/26.0.16 Chrome/132.0.6834.196 Electron/34.2.0 Safari/537.36" version="26.0.16">
  <diagram name="Page-1" id="0783ab3e-0a74-02c8-0abd-f7b4e66b4bec">
    <mxGraphModel dx="1793" dy="1055" grid="1" gridSize="10" guides="1" tooltips="1" connect="1" arrows="1" fold="1" page="1" pageScale="1" pageWidth="850" pageHeight="1100" background="none" math="0" shadow="0">
      <root>
        <mxCell id="0" />
        <mxCell id="1" parent="0" />
        <mxCell id="BuFhhme52-1ew22JaMJV-46" value="Получение плана тренировки" style="swimlane;html=1;childLayout=stackLayout;startSize=20;rounded=0;shadow=0;comic=0;labelBackgroundColor=none;strokeWidth=1;fontFamily=Verdana;fontSize=12;align=center;" parent="1" vertex="1">
          <mxGeometry x="30" y="30" width="750" height="830" as="geometry">
            <mxRectangle x="40" y="10" width="320" height="30" as="alternateBounds" />
          </mxGeometry>
        </mxCell>
        <mxCell id="BuFhhme52-1ew22JaMJV-47" value="Клиент" style="swimlane;html=1;startSize=20;" parent="BuFhhme52-1ew22JaMJV-46" vertex="1">
          <mxGeometry y="20" width="250" height="810" as="geometry" />
        </mxCell>
        <mxCell id="BuFhhme52-1ew22JaMJV-87" style="edgeStyle=orthogonalEdgeStyle;rounded=0;orthogonalLoop=1;jettySize=auto;html=1;exitX=0.5;exitY=1;exitDx=0;exitDy=0;entryX=0.5;entryY=0;entryDx=0;entryDy=0;" parent="BuFhhme52-1ew22JaMJV-47" source="BuFhhme52-1ew22JaMJV-50" target="BuFhhme52-1ew22JaMJV-51" edge="1">
          <mxGeometry relative="1" as="geometry" />
        </mxCell>
        <mxCell id="BuFhhme52-1ew22JaMJV-50" value="" style="ellipse;fillColor=strokeColor;html=1;" parent="BuFhhme52-1ew22JaMJV-47" vertex="1">
          <mxGeometry x="111.88" y="30" width="20" height="20" as="geometry" />
        </mxCell>
        <mxCell id="BuFhhme52-1ew22JaMJV-51" value="Авторизироваться в системе" style="rounded=1;whiteSpace=wrap;html=1;shadow=0;comic=0;labelBackgroundColor=none;strokeWidth=1;fontFamily=Verdana;fontSize=12;align=center;arcSize=50;" parent="BuFhhme52-1ew22JaMJV-47" vertex="1">
          <mxGeometry x="40.01" y="70" width="163.75" height="30" as="geometry" />
        </mxCell>
        <mxCell id="BuFhhme52-1ew22JaMJV-80" value="Неправильные данные авторизации" style="text;html=1;align=left;verticalAlign=middle;whiteSpace=wrap;rounded=0;" parent="BuFhhme52-1ew22JaMJV-47" vertex="1">
          <mxGeometry x="30" y="150" width="210" height="30" as="geometry" />
        </mxCell>
        <mxCell id="BuFhhme52-1ew22JaMJV-84" value="Выбрать тренера и отправить заявку&amp;nbsp;" style="rounded=1;whiteSpace=wrap;html=1;shadow=0;comic=0;labelBackgroundColor=none;strokeWidth=1;fontFamily=Verdana;fontSize=12;align=center;arcSize=50;" parent="BuFhhme52-1ew22JaMJV-47" vertex="1">
          <mxGeometry x="40.01" y="270" width="170" height="30" as="geometry" />
        </mxCell>
        <mxCell id="neyNL7gZb5XsgJYLjUJM-23" style="edgeStyle=orthogonalEdgeStyle;rounded=0;orthogonalLoop=1;jettySize=auto;html=1;exitX=0.5;exitY=1;exitDx=0;exitDy=0;entryX=0.5;entryY=0;entryDx=0;entryDy=0;" edge="1" parent="BuFhhme52-1ew22JaMJV-47" source="neyNL7gZb5XsgJYLjUJM-18" target="BuFhhme52-1ew22JaMJV-48">
          <mxGeometry relative="1" as="geometry" />
        </mxCell>
        <mxCell id="neyNL7gZb5XsgJYLjUJM-18" value="&lt;span style=&quot;font-family: Helvetica;&quot;&gt;Посмотреть план тренировок&lt;/span&gt;" style="rounded=1;whiteSpace=wrap;html=1;shadow=0;comic=0;labelBackgroundColor=none;strokeWidth=1;fontFamily=Verdana;fontSize=12;align=center;arcSize=50;" vertex="1" parent="BuFhhme52-1ew22JaMJV-47">
          <mxGeometry x="36.87999999999999" y="730" width="170" height="30" as="geometry" />
        </mxCell>
        <mxCell id="BuFhhme52-1ew22JaMJV-48" value="" style="ellipse;html=1;shape=endState;fillColor=strokeColor;" parent="BuFhhme52-1ew22JaMJV-47" vertex="1">
          <mxGeometry x="111.88" y="780" width="20" height="20" as="geometry" />
        </mxCell>
        <mxCell id="BuFhhme52-1ew22JaMJV-54" value="Система" style="swimlane;html=1;startSize=20;" parent="BuFhhme52-1ew22JaMJV-46" vertex="1">
          <mxGeometry x="250" y="20" width="250" height="810" as="geometry" />
        </mxCell>
        <mxCell id="BuFhhme52-1ew22JaMJV-82" style="edgeStyle=orthogonalEdgeStyle;rounded=0;orthogonalLoop=1;jettySize=auto;html=1;" parent="BuFhhme52-1ew22JaMJV-54" source="BuFhhme52-1ew22JaMJV-74" target="BuFhhme52-1ew22JaMJV-73" edge="1">
          <mxGeometry relative="1" as="geometry" />
        </mxCell>
        <mxCell id="BuFhhme52-1ew22JaMJV-74" value="" style="rhombus;whiteSpace=wrap;html=1;" parent="BuFhhme52-1ew22JaMJV-54" vertex="1">
          <mxGeometry x="95.75" y="160" width="70" height="30" as="geometry" />
        </mxCell>
        <mxCell id="BuFhhme52-1ew22JaMJV-78" style="edgeStyle=orthogonalEdgeStyle;rounded=0;orthogonalLoop=1;jettySize=auto;html=1;entryX=0.5;entryY=0;entryDx=0;entryDy=0;" parent="BuFhhme52-1ew22JaMJV-54" source="BuFhhme52-1ew22JaMJV-56" target="BuFhhme52-1ew22JaMJV-74" edge="1">
          <mxGeometry relative="1" as="geometry" />
        </mxCell>
        <mxCell id="BuFhhme52-1ew22JaMJV-56" value="Проверка телефона и пароля" style="rounded=1;whiteSpace=wrap;html=1;shadow=0;comic=0;labelBackgroundColor=none;strokeWidth=1;fontFamily=Verdana;fontSize=12;align=center;arcSize=50;" parent="BuFhhme52-1ew22JaMJV-54" vertex="1">
          <mxGeometry x="51.5" y="110" width="158.5" height="30" as="geometry" />
        </mxCell>
        <mxCell id="BuFhhme52-1ew22JaMJV-79" value="Правильные данные авторизации" style="text;html=1;align=left;verticalAlign=middle;whiteSpace=wrap;rounded=0;" parent="BuFhhme52-1ew22JaMJV-54" vertex="1">
          <mxGeometry x="130" y="190" width="120" height="30" as="geometry" />
        </mxCell>
        <mxCell id="BuFhhme52-1ew22JaMJV-73" value="Отобразить список тренеров" style="rounded=1;whiteSpace=wrap;html=1;shadow=0;comic=0;labelBackgroundColor=none;strokeWidth=1;fontFamily=Verdana;fontSize=12;align=center;arcSize=50;" parent="BuFhhme52-1ew22JaMJV-54" vertex="1">
          <mxGeometry x="45.75" y="230" width="170" height="30" as="geometry" />
        </mxCell>
        <mxCell id="BuFhhme52-1ew22JaMJV-88" style="edgeStyle=orthogonalEdgeStyle;rounded=0;orthogonalLoop=1;jettySize=auto;html=1;exitX=0.5;exitY=1;exitDx=0;exitDy=0;" parent="BuFhhme52-1ew22JaMJV-54" source="BuFhhme52-1ew22JaMJV-79" target="BuFhhme52-1ew22JaMJV-79" edge="1">
          <mxGeometry relative="1" as="geometry" />
        </mxCell>
        <mxCell id="BuFhhme52-1ew22JaMJV-91" value="Отобразить&amp;nbsp;список заявок&lt;div&gt;с результатами&lt;/div&gt;" style="rounded=1;whiteSpace=wrap;html=1;shadow=0;comic=0;labelBackgroundColor=none;strokeWidth=1;fontFamily=Verdana;fontSize=12;align=center;arcSize=50;" parent="BuFhhme52-1ew22JaMJV-54" vertex="1">
          <mxGeometry x="42" y="360" width="185" height="30" as="geometry" />
        </mxCell>
        <mxCell id="neyNL7gZb5XsgJYLjUJM-5" style="edgeStyle=orthogonalEdgeStyle;rounded=0;orthogonalLoop=1;jettySize=auto;html=1;exitX=0.25;exitY=1;exitDx=0;exitDy=0;entryX=0.25;entryY=0;entryDx=0;entryDy=0;" edge="1" parent="BuFhhme52-1ew22JaMJV-54" source="neyNL7gZb5XsgJYLjUJM-1" target="BuFhhme52-1ew22JaMJV-91">
          <mxGeometry relative="1" as="geometry" />
        </mxCell>
        <mxCell id="neyNL7gZb5XsgJYLjUJM-1" value="" style="whiteSpace=wrap;html=1;rounded=0;shadow=0;comic=0;labelBackgroundColor=none;strokeWidth=1;fillColor=#000000;fontFamily=Verdana;fontSize=12;align=center;rotation=0;" vertex="1" parent="BuFhhme52-1ew22JaMJV-54">
          <mxGeometry x="51.5" y="310" width="147" height="10" as="geometry" />
        </mxCell>
        <mxCell id="neyNL7gZb5XsgJYLjUJM-6" value="Обновить список заявок&lt;div&gt;с результатами&lt;/div&gt;" style="rounded=1;whiteSpace=wrap;html=1;shadow=0;comic=0;labelBackgroundColor=none;strokeWidth=1;fontFamily=Verdana;fontSize=12;align=center;arcSize=50;" vertex="1" parent="BuFhhme52-1ew22JaMJV-54">
          <mxGeometry x="42" y="510" width="185" height="30" as="geometry" />
        </mxCell>
        <mxCell id="neyNL7gZb5XsgJYLjUJM-15" value="&lt;font face=&quot;Verdana&quot;&gt;Отобразить 2 вкладки: план тренировок и перечень&lt;/font&gt;&lt;div&gt;&lt;span style=&quot;text-align: justify; background-color: transparent; color: light-dark(rgb(0, 0, 0), rgb(255, 255, 255));&quot;&gt;&lt;font face=&quot;Verdana&quot; style=&quot;&quot;&gt;индивидуальных занятий&lt;/font&gt;&lt;/span&gt;&lt;/div&gt;" style="rounded=1;whiteSpace=wrap;html=1;shadow=0;comic=0;labelBackgroundColor=none;strokeWidth=1;fontFamily=Verdana;fontSize=12;align=center;arcSize=26;" vertex="1" parent="BuFhhme52-1ew22JaMJV-54">
          <mxGeometry x="9" y="630" width="232" height="60" as="geometry" />
        </mxCell>
        <mxCell id="BuFhhme52-1ew22JaMJV-77" style="edgeStyle=orthogonalEdgeStyle;rounded=0;orthogonalLoop=1;jettySize=auto;html=1;entryX=0.5;entryY=0;entryDx=0;entryDy=0;" parent="BuFhhme52-1ew22JaMJV-46" source="BuFhhme52-1ew22JaMJV-51" target="BuFhhme52-1ew22JaMJV-56" edge="1">
          <mxGeometry relative="1" as="geometry" />
        </mxCell>
        <mxCell id="BuFhhme52-1ew22JaMJV-75" style="edgeStyle=orthogonalEdgeStyle;rounded=0;orthogonalLoop=1;jettySize=auto;html=1;exitX=0;exitY=0.5;exitDx=0;exitDy=0;entryX=0;entryY=0.5;entryDx=0;entryDy=0;" parent="BuFhhme52-1ew22JaMJV-46" source="BuFhhme52-1ew22JaMJV-74" target="BuFhhme52-1ew22JaMJV-51" edge="1">
          <mxGeometry relative="1" as="geometry">
            <mxPoint x="210" y="215" as="targetPoint" />
          </mxGeometry>
        </mxCell>
        <mxCell id="BuFhhme52-1ew22JaMJV-85" style="edgeStyle=orthogonalEdgeStyle;rounded=0;orthogonalLoop=1;jettySize=auto;html=1;entryX=0.5;entryY=0;entryDx=0;entryDy=0;" parent="BuFhhme52-1ew22JaMJV-46" source="BuFhhme52-1ew22JaMJV-73" target="BuFhhme52-1ew22JaMJV-84" edge="1">
          <mxGeometry relative="1" as="geometry" />
        </mxCell>
        <mxCell id="BuFhhme52-1ew22JaMJV-86" style="edgeStyle=orthogonalEdgeStyle;rounded=0;orthogonalLoop=1;jettySize=auto;html=1;entryX=0.5;entryY=0;entryDx=0;entryDy=0;" parent="BuFhhme52-1ew22JaMJV-46" source="BuFhhme52-1ew22JaMJV-84" target="neyNL7gZb5XsgJYLjUJM-1" edge="1">
          <mxGeometry relative="1" as="geometry" />
        </mxCell>
        <mxCell id="neyNL7gZb5XsgJYLjUJM-2" style="edgeStyle=orthogonalEdgeStyle;rounded=0;orthogonalLoop=1;jettySize=auto;html=1;exitX=0.75;exitY=1;exitDx=0;exitDy=0;entryX=0.5;entryY=0;entryDx=0;entryDy=0;" edge="1" parent="BuFhhme52-1ew22JaMJV-46" source="neyNL7gZb5XsgJYLjUJM-1" target="BuFhhme52-1ew22JaMJV-60">
          <mxGeometry relative="1" as="geometry" />
        </mxCell>
        <mxCell id="BuFhhme52-1ew22JaMJV-58" value="Тренер" style="swimlane;html=1;startSize=20;" parent="BuFhhme52-1ew22JaMJV-46" vertex="1">
          <mxGeometry x="500" y="20" width="250" height="810" as="geometry" />
        </mxCell>
        <mxCell id="neyNL7gZb5XsgJYLjUJM-8" style="edgeStyle=orthogonalEdgeStyle;rounded=0;orthogonalLoop=1;jettySize=auto;html=1;exitX=1;exitY=0.5;exitDx=0;exitDy=0;entryX=0.5;entryY=0;entryDx=0;entryDy=0;" edge="1" parent="BuFhhme52-1ew22JaMJV-58" source="BuFhhme52-1ew22JaMJV-59" target="BuFhhme52-1ew22JaMJV-71">
          <mxGeometry relative="1" as="geometry">
            <mxPoint x="216.5" y="549" as="targetPoint" />
            <Array as="points">
              <mxPoint x="220" y="425" />
              <mxPoint x="220" y="510" />
              <mxPoint x="140" y="510" />
            </Array>
          </mxGeometry>
        </mxCell>
        <mxCell id="BuFhhme52-1ew22JaMJV-59" value="" style="rhombus;whiteSpace=wrap;html=1;" parent="BuFhhme52-1ew22JaMJV-58" vertex="1">
          <mxGeometry x="95.01" y="410" width="70" height="30" as="geometry" />
        </mxCell>
        <mxCell id="BuFhhme52-1ew22JaMJV-60" value="Посмотреть новые заявки" style="rounded=1;whiteSpace=wrap;html=1;shadow=0;comic=0;labelBackgroundColor=none;strokeWidth=1;fontFamily=Verdana;fontSize=12;align=center;arcSize=50;" parent="BuFhhme52-1ew22JaMJV-58" vertex="1">
          <mxGeometry x="35.01" y="360" width="190" height="30" as="geometry" />
        </mxCell>
        <mxCell id="BuFhhme52-1ew22JaMJV-61" style="edgeStyle=orthogonalEdgeStyle;rounded=0;orthogonalLoop=1;jettySize=auto;html=1;exitX=0.5;exitY=1;exitDx=0;exitDy=0;entryX=0.5;entryY=0;entryDx=0;entryDy=0;" parent="BuFhhme52-1ew22JaMJV-58" source="BuFhhme52-1ew22JaMJV-60" target="BuFhhme52-1ew22JaMJV-59" edge="1">
          <mxGeometry relative="1" as="geometry" />
        </mxCell>
        <mxCell id="BuFhhme52-1ew22JaMJV-63" value="Отклонить заявку" style="text;html=1;align=left;verticalAlign=middle;whiteSpace=wrap;rounded=0;" parent="BuFhhme52-1ew22JaMJV-58" vertex="1">
          <mxGeometry x="40" y="426" width="70" height="30" as="geometry" />
        </mxCell>
        <mxCell id="BuFhhme52-1ew22JaMJV-72" value="&lt;span style=&quot;font-family: Helvetica;&quot;&gt;Указать причину отклонения заявки&lt;/span&gt;" style="rounded=1;whiteSpace=wrap;html=1;shadow=0;comic=0;labelBackgroundColor=none;strokeWidth=1;fontFamily=Verdana;fontSize=12;align=center;arcSize=27;" parent="BuFhhme52-1ew22JaMJV-58" vertex="1">
          <mxGeometry x="10" y="470" width="120" height="40" as="geometry" />
        </mxCell>
        <mxCell id="BuFhhme52-1ew22JaMJV-71" value="&lt;span style=&quot;font-family: Helvetica;&quot;&gt;Выставить план&amp;nbsp;&lt;/span&gt;&lt;span style=&quot;color: light-dark(rgb(0, 0, 0), rgb(255, 255, 255)); font-family: Helvetica; background-color: transparent;&quot;&gt;индивидуальных занятий для клиента&lt;/span&gt;" style="rounded=1;whiteSpace=wrap;html=1;shadow=0;comic=0;labelBackgroundColor=none;strokeWidth=1;fontFamily=Verdana;fontSize=12;align=center;arcSize=25;" parent="BuFhhme52-1ew22JaMJV-58" vertex="1">
          <mxGeometry x="40" y="530" width="200" height="60" as="geometry" />
        </mxCell>
        <mxCell id="BuFhhme52-1ew22JaMJV-89" style="edgeStyle=orthogonalEdgeStyle;rounded=0;orthogonalLoop=1;jettySize=auto;html=1;exitX=0;exitY=0.5;exitDx=0;exitDy=0;entryX=0.25;entryY=0;entryDx=0;entryDy=0;" parent="BuFhhme52-1ew22JaMJV-58" source="BuFhhme52-1ew22JaMJV-59" target="BuFhhme52-1ew22JaMJV-72" edge="1">
          <mxGeometry relative="1" as="geometry">
            <mxPoint x="-30" y="510" as="targetPoint" />
          </mxGeometry>
        </mxCell>
        <mxCell id="neyNL7gZb5XsgJYLjUJM-7" value="Принять заявку" style="text;html=1;align=left;verticalAlign=middle;whiteSpace=wrap;rounded=0;" vertex="1" parent="BuFhhme52-1ew22JaMJV-58">
          <mxGeometry x="167" y="428" width="60" height="30" as="geometry" />
        </mxCell>
        <mxCell id="neyNL7gZb5XsgJYLjUJM-12" style="edgeStyle=orthogonalEdgeStyle;rounded=0;orthogonalLoop=1;jettySize=auto;html=1;entryX=0.5;entryY=0;entryDx=0;entryDy=0;" edge="1" parent="BuFhhme52-1ew22JaMJV-46" source="BuFhhme52-1ew22JaMJV-72" target="neyNL7gZb5XsgJYLjUJM-6">
          <mxGeometry relative="1" as="geometry" />
        </mxCell>
        <mxCell id="neyNL7gZb5XsgJYLjUJM-20" style="edgeStyle=orthogonalEdgeStyle;rounded=0;orthogonalLoop=1;jettySize=auto;html=1;exitX=0.5;exitY=1;exitDx=0;exitDy=0;entryX=0.5;entryY=0;entryDx=0;entryDy=0;" edge="1" parent="BuFhhme52-1ew22JaMJV-46" source="neyNL7gZb5XsgJYLjUJM-15" target="neyNL7gZb5XsgJYLjUJM-18">
          <mxGeometry relative="1" as="geometry" />
        </mxCell>
        <mxCell id="neyNL7gZb5XsgJYLjUJM-22" style="edgeStyle=orthogonalEdgeStyle;rounded=0;orthogonalLoop=1;jettySize=auto;html=1;entryX=0.5;entryY=0;entryDx=0;entryDy=0;" edge="1" parent="BuFhhme52-1ew22JaMJV-46" source="BuFhhme52-1ew22JaMJV-71" target="neyNL7gZb5XsgJYLjUJM-15">
          <mxGeometry relative="1" as="geometry">
            <Array as="points">
              <mxPoint x="640" y="630" />
              <mxPoint x="375" y="630" />
            </Array>
          </mxGeometry>
        </mxCell>
      </root>
    </mxGraphModel>
  </diagram>
</mxfile>
